<svg version="1.1" id="Layer_1" xmlns="http://www.w3.org/2000/svg" xmlns:xlink="http://www.w3.org/1999/xlink" x="0px" y="0px"
	 width="100%" viewBox="0 0 275 183" enable-background="new 0 0 275 183" xml:space="preserve">
<path fill="#FEFEFE" opacity="1.000000" stroke="none" 
	d="
M175.000000,184.000000 
	C116.666672,184.000000 58.833347,184.000000 1.000015,184.000000 
	C1.000010,123.000015 1.000010,62.000027 1.000005,1.000032 
	C92.666649,1.000021 184.333298,1.000021 275.999939,1.000011 
	C275.999969,61.999969 275.999969,122.999939 276.000000,183.999954 
	C242.500000,184.000000 209.000000,184.000000 175.000000,184.000000 
M243.971222,120.968254 
	C243.971222,120.968254 243.928177,120.914520 244.409103,121.132607 
	C244.945099,120.808281 245.481110,120.483955 246.510971,120.045906 
	C246.679001,120.063560 246.847015,120.081207 247.469772,120.588806 
	C250.158051,120.588806 252.846344,120.588806 255.465912,120.588806 
	C256.026367,117.858086 256.518188,115.461700 257.779572,113.034584 
	C261.816437,112.262245 266.560211,106.243004 267.000305,101.663933 
	C268.066589,90.570320 259.786438,79.689438 246.968918,81.169548 
	C242.194183,81.720917 239.700195,80.844406 238.932053,75.188820 
	C237.892197,65.334961 236.852356,55.481098 235.779861,45.317871 
	C229.795029,45.981075 224.369843,46.582264 218.124527,47.066559 
	C214.628235,48.302341 210.376450,48.706902 207.846695,51.006123 
	C205.282974,53.336212 204.421295,57.538963 202.335785,61.134617 
	C201.956772,61.488823 201.577744,61.843025 200.573624,61.854576 
	C199.099060,59.688412 197.166428,57.700920 196.238358,55.321594 
	C193.747116,48.934719 190.299698,44.459583 182.502884,45.886585 
	C181.489716,46.072014 180.309357,45.343922 178.991745,44.341339 
	C176.717804,39.796017 172.615753,34.764462 168.472916,35.496620 
	C162.033463,36.634666 156.166504,41.011993 149.798813,44.412086 
	C149.711304,44.737480 149.513855,44.969120 148.539505,44.674557 
	C142.337860,44.164066 136.136230,43.653572 129.065063,43.032291 
	C123.076515,44.484642 117.087959,45.936996 110.709267,46.676804 
	C104.215286,43.347443 97.878349,44.999222 91.526993,47.213566 
	C89.534935,47.908081 87.452431,48.343193 85.240326,48.075672 
	C84.098381,47.431099 82.986397,46.301537 81.809128,46.228806 
	C77.503494,45.962811 73.176117,46.048885 68.136658,45.820461 
	C66.085197,45.573601 64.033737,45.326740 61.922344,44.360031 
	C58.240990,35.141518 50.537987,32.797668 41.822495,34.271744 
	C34.129135,35.572945 29.796753,41.986389 28.962393,50.749779 
	C28.025278,60.592392 35.062294,64.682327 41.442814,69.789536 
	C33.327011,81.394432 25.398777,93.137505 17.002373,104.535698 
	C13.680248,109.045517 13.716091,113.507874 14.616143,118.935287 
	C17.944637,118.935287 21.059866,118.935287 25.048241,119.072784 
	C31.341986,119.435211 37.635731,119.797638 43.473816,120.645531 
	C35.554031,123.499702 32.145218,128.365799 31.460579,136.529587 
	C30.694353,134.262726 29.928127,131.995865 29.018543,129.304871 
	C24.586813,134.064209 25.820698,137.892014 29.451870,143.215042 
	C30.528828,141.416367 31.267643,140.182434 32.558704,139.371201 
	C34.925175,144.038635 38.203968,146.784180 43.886772,147.434616 
	C46.867393,147.775757 50.306877,149.485001 51.482285,154.129959 
	C52.876423,159.639297 57.612076,163.225937 63.464462,163.873154 
	C68.659904,164.447708 72.051918,160.954681 75.458534,157.406296 
	C79.629189,153.062103 77.335480,147.934341 78.816803,143.055573 
	C82.611046,142.083496 81.116539,139.287857 81.427818,136.306061 
	C81.398460,135.774353 81.369102,135.242630 81.666931,134.033432 
	C81.795563,133.027634 81.924194,132.021820 82.783356,131.011841 
	C83.690681,131.601501 84.567383,132.246262 85.510910,132.770798 
	C88.694023,134.540359 91.900879,136.267242 95.053612,138.842422 
	C94.967461,140.227219 94.881317,141.612015 94.425377,143.341003 
	C94.596375,143.894180 94.767365,144.447342 95.349548,145.501953 
	C96.581398,144.675217 97.813240,143.848495 99.694168,143.278412 
	C101.228378,143.773193 102.762581,144.267975 104.814240,145.137650 
	C105.880600,145.735672 106.946960,146.333694 108.147827,147.289017 
	C108.434326,147.218918 108.720833,147.148819 109.665672,147.039902 
	C110.104782,147.052429 110.543892,147.064957 111.113884,147.790314 
	C112.508705,148.533417 113.828934,149.674957 115.310928,149.952423 
	C122.744461,151.344040 130.216415,152.533432 137.682190,153.749023 
	C149.209137,155.625839 160.742081,155.425552 171.510406,150.782043 
	C182.802185,145.912827 192.258224,138.620560 196.613663,125.975716 
	C197.071198,125.677330 197.528717,125.378944 198.636490,124.892380 
	C199.084930,124.905998 199.533356,124.919617 200.286026,125.642441 
	C201.704651,126.829369 203.123291,128.016296 204.242538,129.764206 
	C203.866577,130.268677 203.490631,130.773132 202.720062,130.720688 
	C201.962234,132.381393 201.204407,134.042099 200.446579,135.702805 
	C200.876358,136.173264 201.306137,136.643723 201.735931,137.114182 
	C204.548309,136.159119 207.901566,135.849731 210.024323,134.071472 
	C212.245804,132.210510 214.638199,129.171600 211.570480,125.228401 
	C211.218872,126.241028 211.015350,126.827202 210.211304,127.256737 
	C209.807800,127.161034 209.404282,127.065331 208.998566,126.214996 
	C208.987885,125.460045 208.977203,124.705093 209.005997,123.989143 
	C209.005997,123.989143 208.958359,123.964493 209.789703,124.018219 
	C212.162659,124.347733 214.535599,124.677238 217.087250,125.730011 
	C217.105530,126.472359 217.123810,127.214706 216.658005,128.324219 
	C217.074509,130.574051 217.491013,132.823883 218.080124,135.764343 
	C218.479721,138.501068 218.879318,141.237793 219.281525,143.992294 
	C221.366455,143.992294 223.179169,143.992294 225.587540,144.273285 
	C226.755371,143.955215 227.923218,143.637146 228.992172,143.171768 
	C228.992172,143.171768 229.019928,142.996552 229.776031,143.088440 
	C230.534210,143.144791 231.292374,143.201126 232.528656,143.685226 
	C233.685898,143.457687 234.843140,143.230164 236.539810,142.828583 
	C236.914215,142.838867 237.288605,142.849152 238.517471,142.975510 
	C241.080978,142.797791 244.504013,143.545547 245.968948,142.184967 
	C247.467087,140.793594 247.045212,137.334900 247.467209,134.760422 
	C246.754608,134.549957 245.813232,134.271912 244.607269,133.438950 
	C244.524017,132.637894 244.440781,131.836853 245.048599,130.994080 
	C246.102905,129.740845 247.157211,128.487595 248.211517,127.234352 
	C247.870728,126.988380 247.529953,126.742416 247.189178,126.496452 
	C246.197327,127.322220 245.205475,128.147980 244.051636,128.194824 
	C244.000809,126.871429 243.949982,125.548042 243.989136,123.400391 
	C243.971283,122.574631 243.953445,121.748863 243.971222,120.968254 
M186.655075,19.935081 
	C187.359772,19.283224 188.064468,18.631369 188.769180,17.979513 
	C188.348343,17.677555 187.927521,17.375597 187.506699,17.073639 
	C187.003036,18.048006 186.499374,19.022373 185.710541,20.103756 
	C185.808105,20.070515 185.905670,20.037273 186.655075,19.935081 
M183.000671,33.849129 
	C183.253571,36.355049 183.506470,38.860966 183.724915,41.025505 
	C186.893448,41.167686 189.185410,41.270531 191.477386,41.373375 
	C191.562347,41.014435 191.647324,40.655495 191.732300,40.296555 
	C189.681335,39.475487 187.630356,38.654419 186.044525,38.019558 
	C185.357941,36.332901 184.679581,34.666451 184.004578,32.123508 
	C184.004578,29.273275 184.004578,26.423040 184.004578,23.572807 
	C183.670334,23.557409 183.336075,23.542011 183.001831,23.526613 
	C183.001831,26.683826 183.001831,29.841040 183.000671,33.849129 
M250.356094,138.085526 
	C249.911179,138.726273 249.466263,139.367020 248.921219,140.781494 
	C248.284714,143.503769 247.484833,146.202606 247.089355,148.959457 
	C246.923126,150.118103 247.612061,151.399445 247.912262,152.625000 
	C249.267502,152.287506 250.806488,152.253387 251.947556,151.562286 
	C258.382568,147.664856 259.531311,142.543976 255.781403,132.318588 
	C253.928940,134.517563 252.462265,136.258591 250.356094,138.085526 
M176.103271,28.678205 
	C176.125061,26.534994 177.000015,23.817757 176.014160,22.352522 
	C172.588562,17.261175 162.299591,16.197929 157.700134,20.355145 
	C156.535431,21.407854 156.192444,23.859268 156.299011,25.617846 
	C156.350616,26.469412 158.257874,27.776695 159.424591,27.894953 
	C164.701111,28.429773 170.013229,28.613609 176.103271,28.678205 
M93.036957,33.388119 
	C93.690819,30.869516 94.621857,28.377924 94.871109,25.819897 
	C94.980927,24.692823 93.792046,22.468628 93.043037,22.400999 
	C90.207993,22.145010 87.100510,21.989248 84.509544,22.933537 
	C82.664986,23.605791 80.779518,25.881727 80.172539,27.833828 
	C79.249306,30.802965 79.972900,34.209335 83.738739,34.730522 
	C86.564018,35.121544 89.562836,34.258591 93.036957,33.388119 
M199.024384,154.161697 
	C200.139328,159.115921 204.143311,158.355118 207.340210,157.729767 
	C208.792480,157.445679 210.536484,155.022812 210.861664,153.323883 
	C211.666428,149.119324 209.347275,146.229172 205.767532,146.006638 
	C201.222733,145.724121 199.423752,147.668030 199.024384,154.161697 
M27.260639,72.630264 
	C28.348999,66.272720 23.220423,58.847874 16.772499,57.446156 
	C14.564286,65.702377 16.908800,69.396957 27.260639,72.630264 
M177.210983,157.717865 
	C178.065933,158.708939 179.487747,160.662857 179.689331,160.544189 
	C182.055786,159.150925 184.504288,157.690842 186.336670,155.700943 
	C187.041580,154.935425 186.234024,152.777176 186.115601,151.253510 
	C185.580292,151.064453 185.044983,150.875412 184.509659,150.686356 
	C182.172455,152.805420 179.835266,154.924484 177.210983,157.717865 
M92.350258,149.913101 
	C91.752510,149.670364 91.154770,149.427643 90.557022,149.184906 
	C90.170090,151.199402 88.789284,153.983322 89.619415,155.055588 
	C91.009979,156.851761 93.810364,157.556488 96.017426,158.720551 
	C95.783539,157.000885 95.785301,155.201157 95.237396,153.588165 
	C94.835915,152.406204 93.712898,151.469345 92.350258,149.913101 
M98.482216,34.039722 
	C98.098740,35.044136 97.715263,36.048550 97.331787,37.052967 
	C98.366333,37.346619 99.477501,38.042084 100.421700,37.862019 
	C103.883942,37.201752 107.167999,36.111118 107.743759,30.163931 
	C104.360268,31.456940 101.692696,32.476357 98.482216,34.039722 
M242.569260,36.250973 
	C242.265366,37.656120 241.961487,39.061268 241.657593,40.466415 
	C243.227432,40.481918 245.306396,41.139557 246.262726,40.381287 
	C248.350937,38.725567 250.152786,36.414921 248.137207,33.171959 
	C246.359329,34.165768 244.806381,35.033844 242.569260,36.250973 
M22.511808,84.809204 
	C19.164896,81.658058 17.585106,82.542908 15.164921,88.924248 
	C20.450571,89.083260 21.650408,88.509392 22.511808,84.809204 
M197.594284,30.797668 
	C198.092667,29.957155 198.951080,29.142298 199.013184,28.270697 
	C199.135895,26.548830 198.817856,24.795555 198.682053,23.055267 
	C196.880615,23.352230 195.079178,23.649193 193.277740,23.946157 
	C193.398651,24.533211 193.519547,25.120266 193.640457,25.707321 
	C194.905609,25.476383 196.170746,25.245445 197.155731,25.065649 
	C197.155731,27.373352 197.155731,29.348679 197.594284,30.797668 
M180.322571,166.982025 
	C179.307816,161.968597 175.707169,163.402435 172.781815,163.152603 
	C172.529739,163.856720 172.277664,164.560837 172.025589,165.264954 
	C174.613525,166.004333 177.201447,166.743698 180.322571,166.982025 
M192.527557,16.312677 
	C191.980042,15.974213 191.432510,15.635747 190.884979,15.297279 
	C190.749451,15.571241 190.613922,15.845203 190.478394,16.119165 
	C191.014832,16.323927 191.551270,16.528687 192.527557,16.312677 
M212.588470,136.516724 
	C212.588470,136.516724 212.476730,136.583542 212.588470,136.516724 
z"/>
<path fill="#FB7360" opacity="1.000000" stroke="none" 
	d="
M43.929474,120.160065 
	C37.635731,119.797638 31.341986,119.435211 24.598278,118.590927 
	C24.857311,114.440414 24.580790,110.143753 26.448193,107.213280 
	C33.992958,95.373421 42.151356,83.921822 50.175293,72.390961 
	C56.330936,63.544952 62.624630,54.795017 68.856926,46.002350 
	C73.176117,46.048885 77.503494,45.962811 81.809128,46.228806 
	C82.986397,46.301537 84.098381,47.431099 85.194138,48.947266 
	C84.376793,69.340042 83.605637,88.861221 82.815315,108.867592 
	C87.120415,108.867592 90.576324,108.867592 94.303238,109.180115 
	C94.574257,113.535660 94.574257,117.578690 94.574257,122.121155 
	C89.770874,122.121155 86.043083,122.121155 82.287827,122.121155 
	C82.095078,124.111900 81.952034,125.589355 81.568130,127.341873 
	C81.331436,129.981598 81.335587,132.346268 81.339737,134.710922 
	C81.369102,135.242630 81.398460,135.774353 80.875824,136.651917 
	C77.883186,137.664352 75.442543,138.330963 72.946976,138.860229 
	C72.806770,138.673859 72.721466,138.624817 72.636169,138.575775 
	C72.756622,138.717834 72.877075,138.859909 72.998505,139.368835 
	C72.995163,140.710831 72.990845,141.685974 72.587326,142.727448 
	C71.124748,142.702209 70.061386,142.610672 68.917595,142.239243 
	C67.641052,141.310562 66.444939,140.661789 65.164581,140.008881 
	C65.080338,140.004761 64.912926,140.025360 64.946991,139.771896 
	C64.965134,139.348663 64.949226,139.178909 65.016647,138.756134 
	C65.150337,138.332825 65.200706,138.162521 65.606369,137.985352 
	C66.917152,137.102600 67.872650,136.226685 68.828156,135.350784 
	C67.903259,134.896835 66.978363,134.442886 65.772850,133.744507 
	C65.492226,129.484085 65.492226,125.468109 65.492226,120.942589 
	C62.231827,120.942589 59.132244,120.942589 55.729893,120.663086 
	C51.594574,120.309082 47.762024,120.234573 43.929474,120.160065 
M68.889420,65.722580 
	C68.803062,65.672913 68.716705,65.623253 68.630348,65.573586 
	C68.754288,65.715157 68.878227,65.856728 69.077843,66.711716 
	C71.827637,72.847298 76.445152,67.185844 78.269814,68.274994 
	C76.263260,67.783096 72.630814,66.892609 68.889420,65.722580 
M56.633678,85.153625 
	C51.439251,92.114174 46.244820,99.074730 40.411354,106.891586 
	C46.492603,106.891586 51.535564,106.891586 57.255684,107.449699 
	C58.554565,107.614639 59.857899,107.750671 61.151520,107.949783 
	C65.502022,108.619415 67.409904,107.244576 67.112274,102.395477 
	C66.821716,97.661606 67.700226,92.867035 67.843201,88.092453 
	C67.992485,83.106827 67.876534,78.113258 67.876534,73.123154 
	C67.200996,72.865791 66.525452,72.608421 65.849915,72.351051 
	C63.007618,76.554840 60.165318,80.758629 56.633678,85.153625 
M74.642303,90.049896 
	C73.925797,90.197510 73.209290,90.345123 71.089272,90.781898 
	C74.681343,93.417061 77.263748,95.311539 80.542183,97.716621 
	C81.378220,92.023956 78.353233,91.082367 74.642303,90.049896 
z"/>
<path fill="#FB7360" opacity="1.000000" stroke="none" 
	d="
M199.981796,124.933228 
	C199.533356,124.919617 199.084930,124.905998 197.984299,124.939415 
	C196.899521,125.061440 196.466934,125.136421 195.609314,125.157692 
	C191.845306,125.377853 188.506348,125.651726 185.155090,125.468597 
	C185.057312,122.520248 184.153152,119.678490 185.041199,117.603867 
	C187.612015,111.597961 190.903320,105.900452 194.219055,100.214096 
	C195.336151,100.230095 196.142700,100.051544 196.956467,100.007996 
	C201.558914,99.761650 201.971207,99.023422 199.892807,94.724915 
	C199.646393,94.215294 199.518097,93.648560 199.202301,92.716476 
	C200.459869,92.775375 201.234467,92.811653 202.307983,93.062767 
	C204.511475,93.810837 206.416016,94.344078 208.230942,95.242935 
	C205.660110,100.541237 203.178894,105.473915 200.265137,111.266525 
	C206.145920,110.743065 210.903809,110.319557 216.105347,109.927277 
	C219.596909,109.540047 222.644852,109.121574 225.590103,108.717194 
	C225.423950,105.166519 225.279556,102.080521 225.470886,99.038177 
	C227.432358,100.426964 228.962265,101.922203 230.727310,103.049110 
	C231.520615,103.555588 232.844147,103.568237 233.808624,103.328445 
	C234.293427,103.207901 234.971008,101.794060 234.757568,101.364204 
	C234.311951,100.466766 233.457825,99.492279 232.548248,99.159233 
	C230.120987,98.270493 227.575653,97.704277 225.014435,96.594765 
	C223.923325,87.534805 222.895050,78.889946 222.103485,69.928238 
	C225.673904,69.611397 229.007614,69.611397 232.341324,69.611397 
	C232.343628,69.286827 232.345932,68.962257 232.348251,68.637695 
	C227.994064,67.971176 223.639877,67.304657 218.934280,66.584351 
	C219.241669,67.529732 219.673904,68.859154 220.090118,70.559402 
	C219.699493,72.347061 219.324921,73.763901 218.605591,75.050621 
	C216.442245,73.599327 214.623672,72.278145 212.949936,70.670898 
	C213.787323,69.586052 214.479874,68.787270 215.405273,67.974197 
	C215.882477,67.809196 216.126801,67.658493 216.371140,67.507790 
	C215.976456,67.346634 215.581787,67.185478 215.160553,66.753754 
	C214.859421,66.048676 214.496445,65.204628 214.323715,65.241905 
	C212.199921,65.700401 210.103928,66.287773 208.035858,66.644852 
	C208.070969,66.447861 208.154694,66.056549 208.355560,65.936813 
	C208.788177,65.592911 208.936798,65.322975 209.223633,64.936646 
	C209.742813,64.734535 209.955322,64.518959 210.353973,64.035980 
	C211.103806,62.909237 211.582184,61.965824 212.290771,60.842079 
	C212.686829,60.112110 212.852676,59.562477 213.265472,58.774544 
	C215.323166,54.751980 217.133926,50.967712 218.944672,47.183449 
	C224.369843,46.582264 229.795029,45.981075 235.779861,45.317871 
	C236.852356,55.481098 237.892197,65.334961 238.949554,76.041840 
	C239.631668,83.309998 240.456863,89.713402 240.926407,96.142776 
	C241.823135,108.421303 241.739044,108.427444 253.968201,106.496056 
	C254.215240,107.202385 254.392212,107.593979 254.458893,108.245529 
	C254.505081,109.021019 254.661575,109.536560 254.812378,110.504311 
	C254.806686,113.494324 254.806686,116.032127 254.806686,118.617287 
	C252.044281,119.142548 249.529648,119.620697 247.015015,120.098846 
	C246.847015,120.081207 246.679001,120.063560 245.962708,120.057877 
	C244.919006,120.351410 244.423599,120.632965 243.928177,120.914520 
	C243.928177,120.914520 243.971222,120.968254 243.700760,121.128410 
	C243.586594,122.267258 243.742889,123.245956 243.899170,124.224648 
	C243.949982,125.548042 244.000809,126.871429 244.083313,128.931091 
	C244.195831,130.123489 244.276688,130.579651 244.357544,131.035797 
	C244.440781,131.836853 244.524017,132.637894 244.694000,134.164307 
	C244.780716,137.131989 244.780716,139.374313 244.780716,141.472290 
	C242.114105,141.991974 239.888550,142.425705 237.663010,142.859436 
	C237.288605,142.849152 236.914215,142.838867 235.873596,142.863022 
	C234.155121,143.017471 233.102829,143.137466 232.050552,143.257477 
	C231.292374,143.201126 230.534210,143.144791 229.405106,142.594055 
	C228.359207,135.396439 227.684235,128.693222 227.204773,121.798149 
	C227.845505,120.114220 228.290756,118.622147 228.756516,117.061317 
	C225.195755,116.761894 224.868347,119.097008 224.610229,121.878212 
	C221.875061,122.306465 219.535278,122.670486 216.757874,122.993744 
	C213.866272,123.290146 211.412323,123.627319 208.958359,123.964493 
	C208.958359,123.964493 209.005997,123.989143 208.554489,123.931656 
	C205.395920,124.227180 202.688858,124.580208 199.981796,124.933228 
M238.854080,91.844254 
	C238.055450,90.318329 237.256805,88.792404 236.175339,86.726082 
	C232.440598,91.374725 234.953918,94.220238 237.698822,97.489441 
	C238.177139,95.634369 238.570892,94.107269 238.854080,91.844254 
M230.735519,112.370163 
	C230.576157,113.393799 230.416794,114.417442 230.257431,115.441086 
	C232.460434,114.526886 234.994553,113.635490 230.735519,112.370163 
z"/>
<path fill="#FCE2DD" opacity="1.000000" stroke="none" 
	d="
M185.167374,125.925598 
	C188.506348,125.651726 191.845306,125.377853 195.608765,125.360519 
	C196.033264,125.617065 196.043289,126.023071 196.043289,126.023071 
	C192.258224,138.620560 182.802185,145.912827 171.510406,150.782043 
	C160.742081,155.425552 149.209137,155.625839 137.682190,153.749023 
	C130.216415,152.533432 122.744461,151.344040 115.310928,149.952423 
	C113.828934,149.674957 112.508705,148.533417 111.291412,147.214523 
	C114.986458,143.686401 109.913261,143.179123 110.052872,140.905579 
	C110.493195,139.981201 110.808426,139.375031 111.514191,138.772583 
	C117.588600,140.030121 123.272484,141.283966 129.359772,142.671494 
	C133.906296,142.587433 138.054321,142.437042 142.191528,142.137421 
	C149.996552,141.572174 156.565598,138.599136 161.528427,132.310333 
	C168.418976,123.578751 170.306946,113.530991 169.874908,102.538010 
	C170.728104,101.892586 171.372910,101.466339 172.397232,100.996643 
	C175.555771,101.185799 178.334763,101.418404 181.148178,102.043709 
	C180.146759,104.685753 179.321838,107.064789 178.034058,109.159218 
	C174.672577,114.626320 173.274643,120.251434 175.965576,126.771301 
	C178.957565,126.496315 182.062469,126.210953 185.167374,125.925598 
M171.931183,139.697449 
	C175.394852,138.846527 178.858521,137.995590 183.223587,136.923233 
	C177.945084,132.353989 173.035965,132.543381 169.907974,136.170135 
	C168.133575,138.227509 169.150375,138.982147 171.931183,139.697449 
z"/>
<path fill="#F6BC9E" opacity="1.000000" stroke="none" 
	d="
M179.206451,45.038975 
	C180.309357,45.343922 181.489716,46.072014 182.502884,45.886585 
	C190.299698,44.459583 193.747116,48.934719 196.238358,55.321594 
	C197.166428,57.700920 199.099060,59.688412 200.906769,62.353222 
	C202.147949,64.229652 203.056000,65.607445 204.056076,67.304138 
	C204.760300,68.751999 205.372513,69.880959 206.039825,71.292877 
	C206.419281,72.051964 206.743637,72.528091 207.125946,73.362305 
	C212.052261,81.430466 210.541962,86.476143 201.691132,91.046707 
	C195.465271,92.648277 189.554642,94.220741 183.266174,95.759071 
	C183.064178,91.199646 181.669022,85.571510 183.855103,82.457420 
	C186.067017,79.306557 191.823502,78.643982 196.254776,76.796631 
	C195.203537,73.689705 194.056854,70.300674 192.851562,66.701698 
	C192.511414,66.028358 192.229874,65.564972 191.682144,64.985825 
	C191.286133,64.726547 191.156311,64.583038 190.943512,64.109375 
	C190.130646,57.672962 184.905502,58.259769 180.545242,57.020916 
	C179.271683,57.600998 177.716553,58.067959 177.495361,58.892696 
	C176.864288,61.245674 176.887497,63.764336 176.451340,66.181374 
	C175.469971,71.619644 173.555771,76.362366 167.109772,77.042633 
	C164.535202,75.965034 162.034897,75.215294 159.447662,74.439491 
	C159.075714,75.677315 158.794724,76.612434 158.172638,77.387787 
	C157.194351,76.621445 156.001389,76.010239 156.006393,75.408989 
	C156.053497,69.739639 154.905685,63.507622 156.898911,58.565773 
	C158.814682,53.815914 163.882828,50.229305 167.903198,46.494789 
	C169.323410,45.175579 171.740158,44.929211 173.245316,44.364380 
	C175.555054,44.589153 176.603455,50.590485 179.206451,45.038975 
z"/>
<path fill="#EBEAEA" opacity="1.000000" stroke="none" 
	d="
M68.998024,142.519135 
	C70.061386,142.610672 71.124748,142.702209 72.999176,142.831680 
	C75.220673,142.974335 76.631111,143.079086 78.041550,143.183838 
	C77.335480,147.934341 79.629189,153.062103 75.458534,157.406296 
	C72.051918,160.954681 68.659904,164.447708 63.464462,163.873154 
	C57.612076,163.225937 52.876423,159.639297 51.482285,154.129959 
	C50.306877,149.485001 46.867393,147.775757 43.886772,147.434616 
	C38.203968,146.784180 34.925175,144.038635 32.281792,138.838623 
	C32.004894,137.876480 32.004913,137.446945 32.004936,137.017395 
	C32.145218,128.365799 35.554031,123.499702 43.701645,120.402802 
	C47.762024,120.234573 51.594574,120.309082 55.647858,121.098434 
	C55.629604,127.223495 55.390614,132.633713 55.071869,138.455475 
	C54.735096,144.668869 58.933727,141.320694 61.507751,141.967682 
	C62.305378,141.787979 62.815235,141.540344 63.438278,141.623718 
	C64.015518,142.000259 64.479568,142.045807 65.221069,142.305618 
	C66.665024,142.519638 67.831528,142.519379 68.998024,142.519135 
z"/>
<path fill="#FCE1DC" opacity="1.000000" stroke="none" 
	d="
M94.032227,108.867584 
	C90.576324,108.867592 87.120415,108.867592 82.815315,108.867592 
	C83.605637,88.861221 84.376793,69.340042 85.279640,49.357948 
	C87.452431,48.343193 89.534935,47.908081 91.526993,47.213566 
	C97.878349,44.999222 104.215286,43.347443 110.727882,47.301655 
	C104.211349,52.895123 99.273163,59.250263 98.360069,67.400627 
	C97.262527,77.197495 97.446091,87.137886 97.027542,97.257767 
	C96.980110,97.499405 97.081856,97.981277 97.010818,98.358505 
	C96.990486,99.498718 97.041191,100.261688 97.030540,101.347313 
	C97.009758,102.104103 97.050331,102.538239 97.022034,103.384651 
	C96.904114,105.186287 96.855072,106.575653 96.574341,107.859909 
	C95.572495,108.125725 94.802361,108.496658 94.032227,108.867584 
z"/>
<path fill="#FA7360" opacity="1.000000" stroke="none" 
	d="
M129.934586,43.143082 
	C136.136230,43.653572 142.337860,44.164066 148.897034,45.265495 
	C147.121307,49.544201 144.988068,53.231968 142.505325,56.767784 
	C139.464005,56.696579 136.772171,56.777321 133.696701,56.889458 
	C131.068359,58.561649 128.823669,60.202442 126.272171,61.980026 
	C121.641487,68.412285 121.983246,75.561592 122.011185,82.987518 
	C120.454071,85.174957 119.086494,87.063019 117.415413,89.041718 
	C113.513420,92.480415 109.914932,95.828468 106.220543,98.705727 
	C106.106621,90.920952 105.716667,83.584297 106.161041,76.298515 
	C106.770027,66.313759 109.348465,56.787498 117.505043,50.160713 
	C121.145653,47.202911 125.761398,45.445366 129.934586,43.143082 
z"/>
<path fill="#9C483B" opacity="1.000000" stroke="none" 
	d="
M129.499817,43.087685 
	C125.761398,45.445366 121.145653,47.202911 117.505043,50.160713 
	C109.348465,56.787498 106.770027,66.313759 106.161041,76.298515 
	C105.716667,83.584297 106.106621,90.920952 106.118912,99.063187 
	C103.315254,104.488731 104.012794,108.842712 107.029907,113.438232 
	C108.617729,124.341331 113.170227,133.029678 122.398819,138.811600 
	C124.527344,140.145157 126.767555,141.300461 128.956375,142.537796 
	C123.272484,141.283966 117.588600,140.030121 111.480293,138.435883 
	C101.264870,130.436096 97.911217,119.732254 96.806038,107.965019 
	C96.855072,106.575653 96.904114,105.186287 97.237473,103.243210 
	C97.378502,102.134552 97.235199,101.579605 97.091904,101.024666 
	C97.041191,100.261688 96.990486,99.498718 97.170410,98.272598 
	C97.292358,97.545013 97.183670,97.280579 97.074982,97.016136 
	C97.446091,87.137886 97.262527,77.197495 98.360069,67.400627 
	C99.273163,59.250263 104.211349,52.895123 110.922958,47.657928 
	C117.087959,45.936996 123.076515,44.484642 129.499817,43.087685 
z"/>
<path fill="#9D493D" opacity="1.000000" stroke="none" 
	d="
M68.496796,45.911407 
	C62.624630,54.795017 56.330936,63.544952 50.175293,72.390961 
	C42.151356,83.921822 33.992958,95.373421 26.448193,107.213280 
	C24.580790,110.143753 24.857311,114.440414 24.161707,118.522179 
	C21.059866,118.935287 17.944637,118.935287 14.616143,118.935287 
	C13.716091,113.507874 13.680248,109.045517 17.002373,104.535698 
	C25.398777,93.137505 33.327011,81.394432 41.828339,69.257767 
	C46.966637,61.905449 51.586140,54.984947 56.570744,48.338249 
	C57.741386,46.777267 60.145580,46.141365 61.982273,45.079876 
	C64.033737,45.326740 66.085197,45.573601 68.496796,45.911407 
z"/>
<path fill="#EBEBEB" opacity="1.000000" stroke="none" 
	d="
M61.952309,44.719955 
	C60.145580,46.141365 57.741386,46.777267 56.570744,48.338249 
	C51.586140,54.984947 46.966637,61.905449 41.975456,68.923126 
	C35.062294,64.682327 28.025278,60.592392 28.962393,50.749779 
	C29.796753,41.986389 34.129135,35.572945 41.822495,34.271744 
	C50.537987,32.797668 58.240990,35.141518 61.952309,44.719955 
z"/>
<path fill="#2A353A" opacity="1.000000" stroke="none" 
	d="
M179.099091,44.690155 
	C176.603455,50.590485 175.555054,44.589153 173.245316,44.364380 
	C171.740158,44.929211 169.323410,45.175579 167.903198,46.494789 
	C163.882828,50.229305 158.814682,53.815914 156.898911,58.565773 
	C154.905685,63.507622 156.053497,69.739639 156.006393,75.408989 
	C156.001389,76.010239 157.194351,76.621445 158.199524,77.395775 
	C158.567505,77.563522 158.621246,77.583092 158.705338,77.888115 
	C159.512848,78.817848 160.236252,79.442558 160.986267,80.323090 
	C161.009384,80.750328 161.005905,80.921761 160.617004,81.197746 
	C157.157486,81.024437 154.083435,80.746574 150.933884,80.166977 
	C148.288483,77.900749 145.718567,75.936256 142.988831,73.654495 
	C141.841064,71.760605 140.853104,70.183983 140.058273,68.689499 
	C140.127563,68.678780 140.003738,68.585922 139.776443,68.055542 
	C139.791382,66.432724 139.909790,65.247421 140.289581,63.987175 
	C140.727051,63.608025 140.903122,63.303822 141.345123,62.828857 
	C142.195862,61.765385 142.780640,60.872673 143.699478,59.877708 
	C145.589630,55.992046 146.241714,51.733906 150.724380,49.658009 
	C151.398026,49.346054 153.370392,45.571117 150.056870,44.016277 
	C156.166504,41.011993 162.033463,36.634666 168.472916,35.496620 
	C172.615753,34.764462 176.717804,39.796017 179.099091,44.690155 
z"/>
<path fill="#ECE9E7" opacity="1.000000" stroke="none" 
	d="
M254.818054,110.052101 
	C254.661575,109.536560 254.505081,109.021019 254.740692,108.233452 
	C255.605194,107.527756 256.077606,107.094086 256.550049,106.660416 
	C255.666077,106.500717 254.782104,106.341019 253.898132,106.181320 
	C241.739044,108.427444 241.823135,108.421303 240.926407,96.142776 
	C240.456863,89.713402 239.631668,83.309998 239.024078,76.457542 
	C239.700195,80.844406 242.194183,81.720917 246.968918,81.169548 
	C259.786438,79.689438 268.066589,90.570320 267.000305,101.663933 
	C266.560211,106.243004 261.816437,112.262245 257.363098,112.710884 
	C256.237091,111.608818 255.527573,110.830460 254.818054,110.052101 
M243.827850,87.591408 
	C243.634842,89.668282 243.286377,91.755867 243.427872,93.809708 
	C243.447540,94.095398 246.203079,94.809471 247.139175,94.303070 
	C250.335495,92.573952 251.625046,89.755608 250.374649,85.365776 
	C248.236069,85.994347 246.297745,86.564064 243.827850,87.591408 
z"/>
<path fill="#FAE2DC" opacity="1.000000" stroke="none" 
	d="
M96.574341,107.859909 
	C97.911217,119.732254 101.264870,130.436096 111.089767,138.432190 
	C110.808426,139.375031 110.493195,139.981201 109.695129,140.836258 
	C107.479248,140.349258 105.746185,139.613388 103.960632,138.597809 
	C101.555252,136.433670 99.163910,134.594620 96.864410,132.647171 
	C95.552948,131.536499 94.391296,130.248932 93.162186,129.041031 
	C92.807396,129.438553 92.452599,129.836090 92.097809,130.233612 
	C94.042007,132.557571 95.986214,134.881531 97.626534,137.167648 
	C96.581314,137.423370 95.839989,137.716904 95.098656,138.010452 
	C91.900879,136.267242 88.694023,134.540359 85.510910,132.770798 
	C84.567383,132.246262 83.690681,131.601501 82.341904,130.623108 
	C81.869957,129.178513 81.839470,128.122665 81.808983,127.066811 
	C81.952034,125.589355 82.095078,124.111900 82.287827,122.121155 
	C86.043083,122.121155 89.770874,122.121155 94.574257,122.121155 
	C94.574257,117.578690 94.574257,113.535660 94.303238,109.180115 
	C94.802361,108.496658 95.572495,108.125725 96.574341,107.859909 
z"/>
<path fill="#9F493C" opacity="1.000000" stroke="none" 
	d="
M227.009277,121.989998 
	C227.684235,128.693222 228.359207,135.396439 229.027054,142.548096 
	C229.019928,142.996552 228.992172,143.171768 228.684631,143.225159 
	C227.248672,143.516464 226.120285,143.754379 224.991882,143.992294 
	C223.179169,143.992294 221.366455,143.992294 219.281525,143.992294 
	C218.879318,141.237793 218.479721,138.501068 218.057648,135.063446 
	C217.737473,132.227402 217.439774,130.092224 217.142090,127.957054 
	C217.123810,127.214706 217.105530,126.472359 217.084305,125.046051 
	C217.119415,123.919563 217.157455,123.477036 217.195511,123.034515 
	C219.535278,122.670486 221.875061,122.306465 224.942322,121.927002 
	C226.116302,121.937698 226.562790,121.963844 227.009277,121.989998 
z"/>
<path fill="#ECECEC" opacity="1.000000" stroke="none" 
	d="
M175.707886,28.801029 
	C170.013229,28.613609 164.701111,28.429773 159.424591,27.894953 
	C158.257874,27.776695 156.350616,26.469412 156.299011,25.617846 
	C156.192444,23.859268 156.535431,21.407854 157.700134,20.355145 
	C162.299591,16.197929 172.588562,17.261175 176.014160,22.352522 
	C177.000015,23.817757 176.125061,26.534994 175.707886,28.801029 
z"/>
<path fill="#ECECEC" opacity="1.000000" stroke="none" 
	d="
M92.760681,33.671021 
	C89.562836,34.258591 86.564018,35.121544 83.738739,34.730522 
	C79.972900,34.209335 79.249306,30.802965 80.172539,27.833828 
	C80.779518,25.881727 82.664986,23.605791 84.509544,22.933537 
	C87.100510,21.989248 90.207993,22.145010 93.043037,22.400999 
	C93.792046,22.468628 94.980927,24.692823 94.871109,25.819897 
	C94.621857,28.377924 93.690819,30.869516 92.760681,33.671021 
z"/>
<path fill="#ECECEC" opacity="1.000000" stroke="none" 
	d="
M250.995590,137.999603 
	C252.462265,136.258591 253.928940,134.517563 255.781403,132.318588 
	C259.531311,142.543976 258.382568,147.664856 251.947556,151.562286 
	C250.806488,152.253387 249.267502,152.287506 247.912262,152.625000 
	C247.612061,151.399445 246.923126,150.118103 247.089355,148.959457 
	C247.484833,146.202606 248.284714,143.503769 249.289246,140.350128 
	C250.103378,139.279053 250.549484,138.639328 250.995590,137.999603 
z"/>
<path fill="#9D483D" opacity="1.000000" stroke="none" 
	d="
M209.002289,65.007271 
	C208.936798,65.322975 208.788177,65.592911 207.971985,65.912682 
	C205.863068,64.312683 204.338593,62.617085 202.814117,60.921494 
	C204.421295,57.538963 205.282974,53.336212 207.846695,51.006123 
	C210.376450,48.706902 214.628235,48.302341 218.534607,47.125000 
	C217.133926,50.967712 215.323166,54.751980 213.004471,58.600441 
	C211.748825,58.418247 211.001114,58.171856 210.253418,57.925472 
	C210.855789,58.957790 211.458176,59.990105 212.060562,61.022415 
	C211.582184,61.965824 211.103806,62.909237 210.312958,63.750027 
	C209.836914,63.391048 209.673340,63.134689 209.509766,62.878326 
	C209.340607,63.587975 209.171448,64.297623 209.002289,65.007271 
M206.710648,60.457523 
	C206.598816,61.035786 206.486984,61.614044 206.375168,62.192307 
	C206.785568,62.197559 207.195969,62.202812 207.606354,62.208069 
	C207.508438,61.627068 207.410522,61.046066 206.710648,60.457523 
z"/>
<path fill="#FDE5E0" opacity="1.000000" stroke="none" 
	d="
M199.008102,153.744995 
	C199.423752,147.668030 201.222733,145.724121 205.767532,146.006638 
	C209.347275,146.229172 211.666428,149.119324 210.861664,153.323883 
	C210.536484,155.022812 208.792480,157.445679 207.340210,157.729767 
	C204.143311,158.355118 200.139328,159.115921 199.008102,153.744995 
z"/>
<path fill="#ECECEC" opacity="1.000000" stroke="none" 
	d="
M26.905399,72.742218 
	C16.908800,69.396957 14.564286,65.702377 16.772499,57.446156 
	C23.220423,58.847874 28.348999,66.272720 26.905399,72.742218 
z"/>
<path fill="#EEEEEE" opacity="1.000000" stroke="none" 
	d="
M177.354523,157.380707 
	C179.835266,154.924484 182.172455,152.805420 184.509659,150.686356 
	C185.044983,150.875412 185.580292,151.064453 186.115601,151.253510 
	C186.234024,152.777176 187.041580,154.935425 186.336670,155.700943 
	C184.504288,157.690842 182.055786,159.150925 179.689331,160.544189 
	C179.487747,160.662857 178.065933,158.708939 177.354523,157.380707 
z"/>
<path fill="#F77565" opacity="1.000000" stroke="none" 
	d="
M104.013130,138.877502 
	C105.746185,139.613388 107.479248,140.349258 109.570038,141.154480 
	C109.913261,143.179123 114.986458,143.686401 111.225967,146.858109 
	C110.543892,147.064957 110.104782,147.052429 109.098145,146.953857 
	C108.358185,146.889114 108.185760,146.910416 108.013321,146.931702 
	C106.946960,146.333694 105.880600,145.735672 104.438828,144.643295 
	C103.441345,142.397568 100.604790,140.667313 104.013130,138.877502 
z"/>
<path fill="#EDEEED" opacity="1.000000" stroke="none" 
	d="
M92.630859,150.168182 
	C93.712898,151.469345 94.835915,152.406204 95.237396,153.588165 
	C95.785301,155.201157 95.783539,157.000885 96.017426,158.720551 
	C93.810364,157.556488 91.009979,156.851761 89.619415,155.055588 
	C88.789284,153.983322 90.170090,151.199402 90.557022,149.184906 
	C91.154770,149.427643 91.752510,149.670364 92.630859,150.168182 
z"/>
<path fill="#EEEEEE" opacity="1.000000" stroke="none" 
	d="
M98.753670,33.767750 
	C101.692696,32.476357 104.360268,31.456940 107.743759,30.163931 
	C107.167999,36.111118 103.883942,37.201752 100.421700,37.862019 
	C99.477501,38.042084 98.366333,37.346619 97.331787,37.052963 
	C97.715263,36.048550 98.098740,35.044136 98.753670,33.767750 
z"/>
<path fill="#F8F6F1" opacity="1.000000" stroke="none" 
	d="
M210.811829,127.413383 
	C211.015350,126.827202 211.218872,126.241028 211.570480,125.228401 
	C214.638199,129.171600 212.245804,132.210510 210.024323,134.071472 
	C207.901566,135.849731 204.548309,136.159119 201.735931,137.114182 
	C201.306137,136.643723 200.876358,136.173264 200.446579,135.702805 
	C201.204407,134.042099 201.962234,132.381393 202.965118,131.340195 
	C204.035614,132.498840 205.470520,133.620056 205.594971,133.489731 
	C207.436142,131.561905 209.103378,129.467972 210.811829,127.413383 
z"/>
<path fill="#F7D7CF" opacity="1.000000" stroke="none" 
	d="
M103.960632,138.597809 
	C100.604790,140.667313 103.441345,142.397568 104.180099,144.455841 
	C102.762581,144.267975 101.228378,143.773193 99.356339,142.769714 
	C98.655807,140.575821 98.293114,138.890656 97.930420,137.205475 
	C95.986214,134.881531 94.042007,132.557571 92.097809,130.233612 
	C92.452599,129.836090 92.807396,129.438553 93.162186,129.041031 
	C94.391296,130.248932 95.552948,131.536499 96.864410,132.647171 
	C99.163910,134.594620 101.555252,136.433670 103.960632,138.597809 
z"/>
<path fill="#EDEDED" opacity="1.000000" stroke="none" 
	d="
M31.732758,136.773499 
	C32.004913,137.446945 32.004894,137.876480 32.005669,138.627274 
	C31.267643,140.182434 30.528828,141.416367 29.451870,143.215042 
	C25.820698,137.892014 24.586813,134.064209 29.018543,129.304871 
	C29.928127,131.995865 30.694353,134.262726 31.732758,136.773499 
z"/>
<path fill="#EDEDED" opacity="1.000000" stroke="none" 
	d="
M242.911346,36.076447 
	C244.806381,35.033844 246.359329,34.165768 248.137207,33.171959 
	C250.152786,36.414921 248.350937,38.725567 246.262726,40.381287 
	C245.306396,41.139557 243.227432,40.481918 241.657593,40.466415 
	C241.961487,39.061268 242.265366,37.656120 242.911346,36.076447 
z"/>
<path fill="#FB7564" opacity="1.000000" stroke="none" 
	d="
M78.429176,143.119705 
	C76.631111,143.079086 75.220673,142.974335 73.398384,142.765350 
	C72.990845,141.685974 72.995163,140.710831 72.999741,139.367844 
	C73.000000,139.000000 73.001892,138.997559 73.001892,138.997559 
	C75.442543,138.330963 77.883186,137.664352 80.624390,136.969604 
	C81.116539,139.287857 82.611046,142.083496 78.429176,143.119705 
z"/>
<path fill="#F8F6F1" opacity="1.000000" stroke="none" 
	d="
M200.133911,125.287842 
	C202.688858,124.580208 205.395920,124.227180 208.534744,123.912155 
	C208.977203,124.705093 208.987885,125.460045 208.717194,126.742081 
	C207.137848,127.913864 205.839874,128.558548 204.541916,129.203232 
	C203.123291,128.016296 201.704651,126.829369 200.133911,125.287842 
z"/>
<path fill="#F88277" opacity="1.000000" stroke="none" 
	d="
M22.803442,84.970276 
	C21.650408,88.509392 20.450571,89.083260 15.164921,88.924248 
	C17.585106,82.542908 19.164896,81.658058 22.803442,84.970276 
z"/>
<path fill="#24302B" opacity="1.000000" stroke="none" 
	d="
M149.927841,44.214180 
	C153.370392,45.571117 151.398026,49.346054 150.724380,49.658009 
	C146.241714,51.733906 145.589630,55.992046 143.739151,59.587875 
	C143.248123,58.573441 143.051483,57.746586 142.854828,56.919731 
	C144.988068,53.231968 147.121307,49.544201 149.230515,45.481720 
	C149.513855,44.969120 149.711304,44.737480 149.927841,44.214180 
z"/>
<path fill="#F87A6D" opacity="1.000000" stroke="none" 
	d="
M197.375000,31.060837 
	C197.155731,29.348679 197.155731,27.373352 197.155731,25.065649 
	C196.170746,25.245445 194.905609,25.476383 193.640457,25.707321 
	C193.519547,25.120266 193.398651,24.533211 193.277740,23.946157 
	C195.079178,23.649193 196.880615,23.352230 198.682053,23.055267 
	C198.817856,24.795555 199.135895,26.548830 199.013184,28.270697 
	C198.951080,29.142298 198.092667,29.957155 197.375000,31.060837 
z"/>
<path fill="#F38272" opacity="1.000000" stroke="none" 
	d="
M204.392227,129.483719 
	C205.839874,128.558548 207.137848,127.913864 208.718292,127.119400 
	C209.404282,127.065331 209.807800,127.161034 210.511566,127.335068 
	C209.103378,129.467972 207.436142,131.561905 205.594971,133.489731 
	C205.470520,133.620056 204.035614,132.498840 203.162415,131.618652 
	C203.490631,130.773132 203.866577,130.268677 204.392227,129.483719 
z"/>
<path fill="#F6F6F6" opacity="1.000000" stroke="none" 
	d="
M184.001221,33.000000 
	C184.679581,34.666451 185.357941,36.332901 186.044525,38.019558 
	C187.630356,38.654419 189.681335,39.475487 191.732300,40.296555 
	C191.647324,40.655495 191.562347,41.014435 191.477386,41.373375 
	C189.185410,41.270531 186.893448,41.167686 183.724915,41.025505 
	C183.506470,38.860966 183.253571,36.355049 183.251083,33.424789 
	C183.501495,33.000446 184.001221,33.000000 184.001221,33.000000 
z"/>
<path fill="#F67667" opacity="1.000000" stroke="none" 
	d="
M97.626534,137.167648 
	C98.293114,138.890656 98.655807,140.575821 99.031799,142.641388 
	C97.813240,143.848495 96.581398,144.675217 95.191772,144.914459 
	C94.954391,143.883591 94.874779,143.440201 94.795174,142.996811 
	C94.881317,141.612015 94.967461,140.227219 95.076134,138.426437 
	C95.839989,137.716904 96.581314,137.423370 97.626534,137.167648 
z"/>
<path fill="#EFEFEF" opacity="1.000000" stroke="none" 
	d="
M180.055969,167.232544 
	C177.201447,166.743698 174.613525,166.004333 172.025589,165.264954 
	C172.277664,164.560837 172.529739,163.856720 172.781815,163.152603 
	C175.707169,163.402435 179.307816,161.968597 180.055969,167.232544 
z"/>
<path fill="#F8F3ED" opacity="1.000000" stroke="none" 
	d="
M254.812378,110.504311 
	C255.527573,110.830460 256.237091,111.608818 256.978333,112.726257 
	C256.518188,115.461700 256.026367,117.858086 255.465912,120.588806 
	C252.846344,120.588806 250.158051,120.588806 247.242401,120.343826 
	C249.529648,119.620697 252.044281,119.142548 254.806686,118.617287 
	C254.806686,116.032127 254.806686,113.494324 254.812378,110.504311 
z"/>
<path fill="#F8F3ED" opacity="1.000000" stroke="none" 
	d="
M238.090240,142.917480 
	C239.888550,142.425705 242.114105,141.991974 244.780716,141.472290 
	C244.780716,139.374313 244.780716,137.131989 244.826294,134.441772 
	C245.813232,134.271912 246.754608,134.549957 247.467209,134.760422 
	C247.045212,137.334900 247.467087,140.793594 245.968948,142.184967 
	C244.504013,143.545547 241.080978,142.797791 238.090240,142.917480 
z"/>
<path fill="#974B41" opacity="1.000000" stroke="none" 
	d="
M202.574951,61.028053 
	C204.338593,62.617085 205.863068,64.312683 207.771118,66.032410 
	C208.154694,66.056549 208.070969,66.447861 208.064423,66.768539 
	C208.057861,67.089218 207.985733,67.332481 207.754852,67.251694 
	C207.523956,67.170914 207.037598,67.223679 206.655319,67.175606 
	C205.503372,67.080101 204.733719,67.032669 203.964050,66.985237 
	C203.056000,65.607445 202.147949,64.229652 201.219299,62.524551 
	C201.577744,61.843025 201.956772,61.488823 202.574951,61.028053 
z"/>
<path fill="#F7F6F2" opacity="1.000000" stroke="none" 
	d="
M216.900040,128.140640 
	C217.439774,130.092224 217.737473,132.227402 217.971344,134.718140 
	C217.491013,132.823883 217.074509,130.574051 216.900040,128.140640 
z"/>
<path fill="#EEEEEE" opacity="1.000000" stroke="none" 
	d="
M184.002899,32.561752 
	C184.001221,33.000000 183.501495,33.000446 183.251663,32.999352 
	C183.001831,29.841040 183.001831,26.683826 183.001831,23.526613 
	C183.336075,23.542011 183.670334,23.557409 184.004578,23.572807 
	C184.004578,26.423040 184.004578,29.273275 184.002899,32.561752 
z"/>
<path fill="#F8F3ED" opacity="1.000000" stroke="none" 
	d="
M244.703064,131.014938 
	C244.276688,130.579651 244.195831,130.123489 244.164307,129.320557 
	C245.205475,128.147980 246.197327,127.322220 247.189178,126.496452 
	C247.529953,126.742416 247.870728,126.988380 248.211517,127.234352 
	C247.157211,128.487595 246.102905,129.740845 244.703064,131.014938 
z"/>
<path fill="#F8F6F1" opacity="1.000000" stroke="none" 
	d="
M216.757874,122.993744 
	C217.157455,123.477036 217.119415,123.919563 216.994965,124.684418 
	C214.535599,124.677238 212.162659,124.347733 209.374023,123.991364 
	C211.412323,123.627319 213.866272,123.290146 216.757874,122.993744 
z"/>
<path fill="#FB7564" opacity="1.000000" stroke="none" 
	d="
M81.568130,127.341873 
	C81.839470,128.122665 81.869957,129.178513 81.976639,130.625183 
	C81.924194,132.021820 81.795563,133.027634 81.503326,134.372177 
	C81.335587,132.346268 81.331436,129.981598 81.568130,127.341873 
z"/>
<path fill="#F8F3ED" opacity="1.000000" stroke="none" 
	d="
M225.289703,144.132782 
	C226.120285,143.754379 227.248672,143.516464 228.734070,143.298798 
	C227.923218,143.637146 226.755371,143.955215 225.289703,144.132782 
z"/>
<path fill="#EEEEEE" opacity="1.000000" stroke="none" 
	d="
M185.995728,19.996742 
	C186.499374,19.022373 187.003036,18.048006 187.506699,17.073639 
	C187.927521,17.375597 188.348343,17.677555 188.769180,17.979513 
	C188.064468,18.631369 187.359772,19.283224 186.327545,19.967541 
	C186.000000,20.000000 185.995728,19.996742 185.995728,19.996742 
z"/>
<path fill="#EEEEEE" opacity="1.000000" stroke="none" 
	d="
M192.307632,16.523064 
	C191.551270,16.528687 191.014832,16.323927 190.478394,16.119165 
	C190.613922,15.845203 190.749451,15.571241 190.884979,15.297280 
	C191.432510,15.635747 191.980042,15.974213 192.307632,16.523064 
z"/>
<path fill="#F8F3ED" opacity="1.000000" stroke="none" 
	d="
M232.289612,143.471344 
	C233.102829,143.137466 234.155121,143.017471 235.603882,142.950043 
	C234.843140,143.230164 233.685898,143.457687 232.289612,143.471344 
z"/>
<path fill="#F8F3ED" opacity="1.000000" stroke="none" 
	d="
M250.675842,138.042572 
	C250.549484,138.639328 250.103378,139.279053 249.339325,139.963257 
	C249.466263,139.367020 249.911179,138.726273 250.675842,138.042572 
z"/>
<path fill="#F8F3ED" opacity="1.000000" stroke="none" 
	d="
M244.168640,121.023560 
	C244.423599,120.632965 244.919006,120.351410 245.715759,120.114738 
	C245.481110,120.483955 244.945099,120.808281 244.168640,121.023560 
z"/>
<path fill="#F8F3ED" opacity="1.000000" stroke="none" 
	d="
M243.944153,123.812515 
	C243.742889,123.245956 243.586594,122.267258 243.682953,121.105835 
	C243.953445,121.748863 243.971283,122.574631 243.944153,123.812515 
z"/>
<path fill="#FAE2DC" opacity="1.000000" stroke="none" 
	d="
M94.610275,143.168915 
	C94.874779,143.440201 94.954391,143.883591 94.986176,144.663757 
	C94.767365,144.447342 94.596375,143.894180 94.610275,143.168915 
z"/>
<path fill="#F8F6F1" opacity="1.000000" stroke="none" 
	d="
M196.328476,125.999390 
	C196.043289,126.023071 196.033264,125.617065 196.033813,125.414230 
	C196.466934,125.136421 196.899521,125.061440 197.659180,125.033508 
	C197.528717,125.378944 197.071198,125.677330 196.328476,125.999390 
z"/>
<path fill="#F7F6F2" opacity="1.000000" stroke="none" 
	d="
M212.532593,136.550140 
	C212.476730,136.583542 212.588470,136.516724 212.532593,136.550140 
z"/>
<path fill="#FCE2DD" opacity="1.000000" stroke="none" 
	d="
M108.080582,147.110352 
	C108.185760,146.910416 108.358185,146.889114 108.768982,146.973267 
	C108.720833,147.148819 108.434326,147.218918 108.080582,147.110352 
z"/>
<path fill="#EEEEEE" opacity="1.000000" stroke="none" 
	d="
M186.001617,20.002016 
	C185.905670,20.037273 185.808105,20.070515 185.853134,20.050249 
	C185.995728,19.996742 186.000000,20.000000 186.001617,20.002016 
z"/>
<path fill="#9F473A" opacity="1.000000" stroke="none" 
	d="
M57.323017,84.962418 
	C60.165318,80.758629 63.007618,76.554840 65.849915,72.351051 
	C66.525452,72.608421 67.200996,72.865791 67.876534,73.123154 
	C67.876534,78.113258 67.992485,83.106827 67.843201,88.092453 
	C67.700226,92.867035 66.821716,97.661606 67.112274,102.395477 
	C67.409904,107.244576 65.502022,108.619415 61.151520,107.949783 
	C59.857899,107.750671 58.554565,107.614639 56.934822,106.700500 
	C56.850315,98.955002 57.086666,91.958710 57.323017,84.962418 
z"/>
<path fill="#9D473C" opacity="1.000000" stroke="none" 
	d="
M63.325096,141.292725 
	C62.815235,141.540344 62.305378,141.787979 61.374985,141.570770 
	C59.020176,140.085266 57.085899,139.064590 55.151627,138.043930 
	C55.390614,132.633713 55.629604,127.223495 55.950626,121.377930 
	C59.132244,120.942589 62.231827,120.942589 65.492226,120.942589 
	C65.492226,125.468109 65.492226,129.484085 65.606049,134.053864 
	C65.563614,135.735840 65.407349,136.864029 65.251083,137.992203 
	C65.200706,138.162521 65.150337,138.332825 64.721001,138.755630 
	C63.862198,139.125793 63.382366,139.243454 62.902531,139.361099 
	C62.932167,139.526031 62.961800,139.690964 62.991432,139.855896 
	C63.631931,139.912384 64.272430,139.968872 64.912926,140.025360 
	C64.912926,140.025360 65.080338,140.004761 65.066772,140.257751 
	C64.998436,140.680283 64.943672,140.849808 64.492874,141.058640 
	C63.839592,141.162857 63.582344,141.227798 63.325096,141.292725 
z"/>
<path fill="#FAF7F4" opacity="1.000000" stroke="none" 
	d="
M56.978348,85.058022 
	C57.086666,91.958710 56.850315,98.955002 56.596245,106.421440 
	C51.535564,106.891586 46.492603,106.891586 40.411354,106.891586 
	C46.244820,99.074730 51.439251,92.114174 56.978348,85.058022 
z"/>
<path fill="#BB5141" opacity="1.000000" stroke="none" 
	d="
M75.017479,90.068115 
	C78.353233,91.082367 81.378220,92.023956 80.542183,97.716621 
	C77.263748,95.311539 74.681343,93.417061 71.089272,90.781898 
	C73.209290,90.345123 73.925797,90.197510 75.017479,90.068115 
z"/>
<path fill="#FF7F6E" opacity="1.000000" stroke="none" 
	d="
M68.998360,66.002129 
	C72.630814,66.892609 76.263260,67.783096 78.269814,68.274994 
	C76.445152,67.185844 71.827637,72.847298 69.038925,66.355858 
	C69.000000,66.000000 68.998360,66.002129 68.998360,66.002129 
z"/>
<path fill="#FB7564" opacity="1.000000" stroke="none" 
	d="
M65.606369,137.985352 
	C65.407349,136.864029 65.563614,135.735840 65.886673,134.298309 
	C66.978363,134.442886 67.903259,134.896835 68.828156,135.350784 
	C67.872650,136.226685 66.917152,137.102600 65.606369,137.985352 
z"/>
<path fill="#FB7564" opacity="1.000000" stroke="none" 
	d="
M64.888901,141.019348 
	C64.943672,140.849808 64.998436,140.680283 65.151009,140.261871 
	C66.444939,140.661789 67.641052,141.310562 68.917595,142.239227 
	C67.831528,142.519379 66.665024,142.519638 65.221878,142.036758 
	C64.926445,141.375534 64.907677,141.197433 64.888901,141.019348 
z"/>
<path fill="#933D35" opacity="1.000000" stroke="none" 
	d="
M64.946991,139.771896 
	C64.272430,139.968872 63.631931,139.912384 62.991432,139.855896 
	C62.961800,139.690964 62.932167,139.526031 62.902531,139.361099 
	C63.382366,139.243454 63.862198,139.125793 64.637680,139.008667 
	C64.949226,139.178909 64.965134,139.348663 64.946991,139.771896 
z"/>
<path fill="#FB7564" opacity="1.000000" stroke="none" 
	d="
M72.998764,139.000977 
	C72.877075,138.859909 72.756622,138.717834 72.636169,138.575775 
	C72.721466,138.624817 72.806770,138.673859 72.946976,138.860229 
	C73.001892,138.997559 73.000000,139.000000 72.998764,139.000977 
z"/>
<path fill="#FF7F6E" opacity="1.000000" stroke="none" 
	d="
M69.001083,65.999146 
	C68.878227,65.856728 68.754288,65.715157 68.630348,65.573586 
	C68.716705,65.623253 68.803062,65.672913 68.943893,65.862350 
	C68.998360,66.002129 69.000000,66.000000 69.001083,65.999146 
z"/>
<path fill="#9E473B" opacity="1.000000" stroke="none" 
	d="
M218.950348,75.180740 
	C219.324921,73.763901 219.699493,72.347061 220.383728,70.537003 
	C221.084503,70.177544 221.475632,70.211311 221.866760,70.245087 
	C222.895050,78.889946 223.923325,87.534805 224.986282,96.925934 
	C225.059006,98.112968 225.097076,98.553741 225.135147,98.994514 
	C225.279556,102.080521 225.423950,105.166519 225.590103,108.717194 
	C222.644852,109.121574 219.596909,109.540047 216.103210,109.526505 
	C215.093536,103.746674 214.529602,98.398865 214.158951,92.771378 
	C216.232269,91.281090 218.112305,90.070480 219.992325,88.859871 
	C219.052124,88.433159 218.111908,88.006447 217.171692,87.579735 
	C216.838791,85.793915 216.505875,84.008102 216.430359,81.981125 
	C217.441940,79.553551 218.196136,77.367142 218.950348,75.180740 
z"/>
<path fill="#9D493D" opacity="1.000000" stroke="none" 
	d="
M185.155090,125.468597 
	C182.062469,126.210953 178.957565,126.496315 175.965576,126.771301 
	C173.274643,120.251434 174.672577,114.626320 178.034058,109.159218 
	C179.321838,107.064789 180.146759,104.685753 181.107117,101.727875 
	C182.343796,99.650513 183.655945,98.281693 185.361542,96.934822 
	C188.473938,97.998482 191.192886,99.040184 193.911835,100.081894 
	C190.903320,105.900452 187.612015,111.597961 185.041199,117.603867 
	C184.153152,119.678490 185.057312,122.520248 185.155090,125.468597 
z"/>
<path fill="#F8F6F4" opacity="1.000000" stroke="none" 
	d="
M213.965668,93.051056 
	C214.529602,98.398865 215.093536,103.746674 215.659576,109.495262 
	C210.903809,110.319557 206.145920,110.743065 200.265137,111.266525 
	C203.178894,105.473915 205.660110,100.541237 208.446686,95.061081 
	C210.489929,94.026093 212.227798,93.538574 213.965668,93.051056 
z"/>
<path fill="#2A3335" opacity="1.000000" stroke="none" 
	d="
M214.158951,92.771378 
	C212.227798,93.538574 210.489929,94.026093 208.536316,94.695465 
	C206.416016,94.344078 204.511475,93.810837 202.307465,92.757828 
	C202.007462,91.831238 202.006912,91.424416 202.006363,91.017601 
	C210.541962,86.476143 212.052261,81.430466 207.509155,73.364410 
	C213.172745,74.177689 210.998901,79.124352 212.474365,82.229324 
	C213.707718,82.222282 214.940338,82.222282 216.172974,82.222282 
	C216.505875,84.008102 216.838791,85.793915 217.171692,87.579735 
	C218.111908,88.006447 219.052124,88.433159 219.992325,88.859871 
	C218.112305,90.070480 216.232269,91.281090 214.158951,92.771378 
z"/>
<path fill="#30343C" opacity="1.000000" stroke="none" 
	d="
M201.691132,91.046707 
	C202.006912,91.424416 202.007462,91.831238 202.008530,92.542999 
	C201.234467,92.811653 200.459869,92.775375 199.202301,92.716476 
	C199.518097,93.648560 199.646393,94.215294 199.892807,94.724915 
	C201.971207,99.023422 201.558914,99.761650 196.956467,100.007996 
	C196.142700,100.051544 195.336151,100.230095 194.219055,100.214096 
	C191.192886,99.040184 188.473938,97.998482 185.198517,96.688477 
	C184.309357,96.211189 183.976685,96.002190 183.644012,95.793198 
	C189.554642,94.220741 195.465271,92.648277 201.691132,91.046707 
z"/>
<path fill="#313439" opacity="1.000000" stroke="none" 
	d="
M216.430359,81.981125 
	C214.940338,82.222282 213.707718,82.222282 212.474365,82.229324 
	C210.998901,79.124352 213.172745,74.177689 207.451202,73.006317 
	C206.743637,72.528091 206.419281,72.051964 206.377228,71.258865 
	C208.711029,69.734032 210.762970,68.345093 212.805099,70.956963 
	C214.623672,72.278145 216.442245,73.599327 218.605576,75.050613 
	C218.196136,77.367142 217.441940,79.553551 216.430359,81.981125 
z"/>
<path fill="#2A3335" opacity="1.000000" stroke="none" 
	d="
M212.949936,70.670898 
	C210.762970,68.345093 208.711029,69.734032 206.322128,70.975906 
	C205.372513,69.880959 204.760300,68.751999 204.056076,67.304138 
	C204.733719,67.032669 205.503372,67.080101 206.739258,67.300003 
	C207.205460,67.472473 207.614044,67.576118 207.614044,67.576118 
	C207.614044,67.576118 207.985733,67.332481 207.985733,67.332481 
	C207.985733,67.332481 208.057861,67.089218 208.029312,66.965530 
	C210.103928,66.287773 212.199921,65.700401 214.323715,65.241905 
	C214.496445,65.204628 214.859421,66.048676 215.103546,66.993912 
	C215.073090,67.504616 215.172424,67.988487 215.172424,67.988487 
	C214.479874,68.787270 213.787323,69.586052 212.949936,70.670898 
z"/>
<path fill="#B85342" opacity="1.000000" stroke="none" 
	d="
M238.909363,92.212212 
	C238.570892,94.107269 238.177139,95.634369 237.698822,97.489441 
	C234.953918,94.220238 232.440598,91.374725 236.175339,86.726082 
	C237.256805,88.792404 238.055450,90.318329 238.909363,92.212212 
z"/>
<path fill="#FD7967" opacity="1.000000" stroke="none" 
	d="
M225.470886,99.038177 
	C225.097076,98.553741 225.059006,98.112968 225.049103,97.341034 
	C227.575653,97.704277 230.120987,98.270493 232.548248,99.159233 
	C233.457825,99.492279 234.311951,100.466766 234.757568,101.364204 
	C234.971008,101.794060 234.293427,103.207901 233.808624,103.328445 
	C232.844147,103.568237 231.520615,103.555588 230.727310,103.049110 
	C228.962265,101.922203 227.432358,100.426964 225.470886,99.038177 
z"/>
<path fill="#FF8270" opacity="1.000000" stroke="none" 
	d="
M222.103485,69.928238 
	C221.475632,70.211311 221.084503,70.177544 220.399765,70.166183 
	C219.673904,68.859154 219.241669,67.529732 218.934280,66.584351 
	C223.639877,67.304657 227.994064,67.971176 232.348251,68.637695 
	C232.345932,68.962257 232.343628,69.286827 232.341324,69.611397 
	C229.007614,69.611397 225.673904,69.611397 222.103485,69.928238 
z"/>
<path fill="#F87B68" opacity="1.000000" stroke="none" 
	d="
M227.204773,121.798149 
	C226.562790,121.963844 226.116302,121.937698 225.337708,121.862762 
	C224.868347,119.097008 225.195755,116.761894 228.756516,117.061317 
	C228.290756,118.622147 227.845505,120.114220 227.204773,121.798149 
z"/>
<path fill="#F87B68" opacity="1.000000" stroke="none" 
	d="
M231.056183,112.243484 
	C234.994553,113.635490 232.460434,114.526886 230.257431,115.441086 
	C230.416794,114.417442 230.576157,113.393799 231.056183,112.243484 
z"/>
<path fill="#974B41" opacity="1.000000" stroke="none" 
	d="
M212.290771,60.842079 
	C211.458176,59.990105 210.855789,58.957790 210.253418,57.925472 
	C211.001114,58.171856 211.748825,58.418247 212.757507,58.838737 
	C212.852676,59.562477 212.686829,60.112110 212.290771,60.842079 
z"/>
<path fill="#F8F3ED" opacity="1.000000" stroke="none" 
	d="
M253.968201,106.496056 
	C254.782104,106.341019 255.666077,106.500717 256.550049,106.660416 
	C256.077606,107.094086 255.605194,107.527756 254.850983,107.973495 
	C254.392212,107.593979 254.215240,107.202385 253.968201,106.496056 
z"/>
<path fill="#974B41" opacity="1.000000" stroke="none" 
	d="
M209.223633,64.936646 
	C209.171448,64.297623 209.340607,63.587975 209.509766,62.878326 
	C209.673340,63.134689 209.836914,63.391048 210.041504,63.933357 
	C209.955322,64.518959 209.742813,64.734535 209.223633,64.936646 
z"/>
<path fill="#FF8270" opacity="1.000000" stroke="none" 
	d="
M215.405273,67.974197 
	C215.172424,67.988487 215.073090,67.504616 215.130096,67.264465 
	C215.581787,67.185478 215.976456,67.346634 216.371140,67.507790 
	C216.126801,67.658493 215.882477,67.809196 215.405273,67.974197 
z"/>
<path fill="#475A65" opacity="1.000000" stroke="none" 
	d="
M143.148651,73.971764 
	C145.718567,75.936256 148.288483,77.900749 150.911652,80.576958 
	C152.756210,84.344940 154.135986,87.785675 156.495422,90.311172 
	C157.878464,91.791565 161.228653,92.849190 162.940353,92.177261 
	C164.412903,91.599182 164.817032,88.299408 166.029938,86.311707 
	C168.250107,91.293587 170.133911,96.166832 172.017700,101.040085 
	C171.372910,101.466339 170.728104,101.892586 169.514923,102.658844 
	C168.523254,104.334206 167.845047,105.646637 167.722580,107.009018 
	C167.284012,111.887665 165.512466,116.072563 161.531738,119.193024 
	C156.827621,116.486115 152.965714,118.389336 148.959549,120.135246 
	C146.608932,121.159668 144.398911,123.587997 141.324371,120.944221 
	C136.480911,116.779373 131.396194,112.885170 126.292625,109.036835 
	C123.642303,107.038376 123.132378,104.594498 124.933487,102.165054 
	C127.391350,98.849731 126.006706,96.281677 123.830505,93.956360 
	C122.046928,92.050575 119.774590,90.602219 117.718918,88.951080 
	C119.086494,87.063019 120.454071,85.174957 122.278442,82.845978 
	C126.188454,79.731766 129.641663,77.058456 133.513824,74.276627 
	C135.754623,74.241852 137.577240,74.385284 139.398071,74.365288 
	C140.649551,74.351547 141.898544,74.110962 143.148651,73.971764 
z"/>
<path fill="#F97562" opacity="1.000000" stroke="none" 
	d="
M161.879242,119.414589 
	C165.512466,116.072563 167.284012,111.887665 167.722580,107.009018 
	C167.845047,105.646637 168.523254,104.334206 169.306519,102.878021 
	C170.306946,113.530991 168.418976,123.578751 161.528427,132.310333 
	C156.565598,138.599136 149.996552,141.572174 142.191528,142.137421 
	C138.054321,142.437042 133.906296,142.587433 129.359772,142.671494 
	C126.767555,141.300461 124.527344,140.145157 122.398819,138.811600 
	C113.170227,133.029678 108.617729,124.341331 107.329247,113.595650 
	C115.102814,117.594284 122.723503,121.608208 129.994492,126.178490 
	C133.695023,128.504517 137.393082,130.029449 141.561417,128.982376 
	C147.050491,127.603523 152.388382,126.910973 157.867752,128.878098 
	C158.644547,129.156982 159.723557,128.594101 160.721985,128.409866 
	C161.127472,125.258003 161.503357,122.336296 161.879242,119.414589 
z"/>
<path fill="#2A343A" opacity="1.000000" stroke="none" 
	d="
M172.397232,100.996643 
	C170.133911,96.166832 168.250107,91.293587 165.755035,86.130768 
	C164.447586,84.914268 163.751419,83.987350 163.462921,83.043198 
	C168.822617,83.395027 166.403351,79.445374 167.184006,77.370483 
	C173.555771,76.362366 175.469971,71.619644 176.451340,66.181374 
	C176.887497,63.764336 176.864288,61.245674 177.495361,58.892696 
	C177.716553,58.067959 179.271683,57.600998 180.514481,57.423332 
	C181.239868,64.316864 181.814285,64.685944 191.026505,64.439529 
	C191.156311,64.583038 191.286133,64.726547 191.603699,65.193771 
	C192.164368,65.982201 192.537262,66.446922 192.910156,66.911644 
	C194.056854,70.300674 195.203537,73.689705 196.254776,76.796631 
	C191.823502,78.643982 186.067017,79.306557 183.855103,82.457420 
	C181.669022,85.571510 183.064178,91.199646 183.266174,95.759071 
	C183.976685,96.002190 184.309357,96.211189 184.805054,96.666527 
	C183.655945,98.281693 182.343796,99.650513 181.072708,101.335175 
	C178.334763,101.418404 175.555771,101.185799 172.397232,100.996643 
z"/>
<path fill="#B0564C" opacity="1.000000" stroke="none" 
	d="
M171.558136,139.570953 
	C169.150375,138.982147 168.133575,138.227509 169.907974,136.170135 
	C173.035965,132.543381 177.945084,132.353989 183.223587,136.923233 
	C178.858521,137.995590 175.394852,138.846527 171.558136,139.570953 
z"/>
<path fill="#EFECEB" opacity="1.000000" stroke="none" 
	d="
M190.943512,64.109375 
	C181.814285,64.685944 181.239868,64.316864 180.842026,57.473579 
	C184.905502,58.259769 190.130646,57.672962 190.943512,64.109375 
z"/>
<path fill="#F4AE8A" opacity="1.000000" stroke="none" 
	d="
M167.109772,77.042633 
	C166.403351,79.445374 168.822617,83.395027 163.311356,82.796143 
	C162.168915,82.075279 161.585678,81.584229 161.002441,81.093185 
	C161.005905,80.921761 161.009384,80.750328 161.003418,80.058601 
	C160.999451,79.361572 161.004944,79.184845 161.149521,78.952866 
	C161.189758,78.928345 161.090897,78.959076 160.736877,78.821274 
	C159.861557,78.296181 159.241409,77.939636 158.621246,77.583092 
	C158.621246,77.583092 158.567505,77.563522 158.540619,77.555542 
	C158.794724,76.612434 159.075714,75.677315 159.447662,74.439491 
	C162.034897,75.215294 164.535202,75.965034 167.109772,77.042633 
z"/>
<path fill="#EFECEB" opacity="1.000000" stroke="none" 
	d="
M192.851562,66.701698 
	C192.537262,66.446922 192.164368,65.982201 191.869904,65.309532 
	C192.229874,65.564972 192.511414,66.028358 192.851562,66.701698 
z"/>
<path fill="#933D35" opacity="1.000000" stroke="none" 
	d="
M55.071869,138.455475 
	C57.085899,139.064590 59.020176,140.085266 61.087215,141.502838 
	C58.933727,141.320694 54.735096,144.668869 55.071869,138.455475 
z"/>
<path fill="#933D35" opacity="1.000000" stroke="none" 
	d="
M64.492874,141.058640 
	C64.907677,141.197433 64.926445,141.375534 64.944420,141.822495 
	C64.479568,142.045807 64.015518,142.000259 63.438278,141.623718 
	C63.582344,141.227798 63.839592,141.162857 64.492874,141.058640 
z"/>
<path fill="#913B2F" opacity="1.000000" stroke="none" 
	d="
M97.030540,101.347313 
	C97.235199,101.579605 97.378502,102.134552 97.306351,102.830933 
	C97.050331,102.538239 97.009758,102.104103 97.030540,101.347313 
z"/>
<path fill="#913B2F" opacity="1.000000" stroke="none" 
	d="
M97.027542,97.257767 
	C97.183670,97.280579 97.292358,97.545013 97.241455,97.895363 
	C97.081856,97.981277 96.980110,97.499405 97.027542,97.257767 
z"/>
<path fill="#F8BB9D" opacity="1.000000" stroke="none" 
	d="
M161.531738,119.193024 
	C161.503357,122.336296 161.127472,125.258003 160.721985,128.409866 
	C159.723557,128.594101 158.644547,129.156982 157.867752,128.878098 
	C152.388382,126.910973 147.050491,127.603523 141.561417,128.982376 
	C137.393082,130.029449 133.695023,128.504517 129.994492,126.178490 
	C122.723503,121.608208 115.102814,117.594284 107.327469,113.192764 
	C104.012794,108.842712 103.315254,104.488731 106.214813,99.533981 
	C109.914932,95.828468 113.513420,92.480415 117.415413,89.041718 
	C119.774590,90.602219 122.046928,92.050575 123.830505,93.956360 
	C126.006706,96.281677 127.391350,98.849731 124.933487,102.165054 
	C123.132378,104.594498 123.642303,107.038376 126.292625,109.036835 
	C131.396194,112.885170 136.480911,116.779373 141.324371,120.944221 
	C144.398911,123.587997 146.608932,121.159668 148.959549,120.135246 
	C152.965714,118.389336 156.827621,116.486115 161.531738,119.193024 
z"/>
<path fill="#F7F8F7" opacity="1.000000" stroke="none" 
	d="
M142.988831,73.654495 
	C141.898544,74.110962 140.649551,74.351547 139.398071,74.365288 
	C137.577240,74.385284 135.754623,74.241852 133.484894,73.872421 
	C130.884354,69.665573 128.731659,65.754402 126.578979,61.843231 
	C128.823669,60.202442 131.068359,58.561649 133.983337,57.030670 
	C135.791733,58.046337 136.929855,58.952194 138.077271,60.190735 
	C138.717255,61.012722 139.347916,61.502029 140.092468,62.093681 
	C140.206375,62.196018 140.237228,62.500698 140.160919,62.887833 
	C140.065796,63.537354 140.046997,63.799736 140.028183,64.062119 
	C139.909790,65.247421 139.791382,66.432724 139.761383,68.082611 
	C139.849777,68.547188 139.865143,68.607361 139.865143,68.607361 
	C140.853104,70.183983 141.841064,71.760605 142.988831,73.654495 
M136.574631,64.788673 
	C136.308151,64.377640 136.041687,63.966610 135.775223,63.555580 
	C135.715454,64.522453 135.655685,65.489326 135.595901,66.456192 
	C135.871964,66.083260 136.148026,65.710327 136.574631,64.788673 
z"/>
<path fill="#F9DFDB" opacity="1.000000" stroke="none" 
	d="
M126.272171,61.980022 
	C128.731659,65.754402 130.884354,69.665573 133.065948,73.980942 
	C129.641663,77.058456 126.188454,79.731766 122.467979,82.546608 
	C121.983246,75.561592 121.641487,68.412285 126.272171,61.980022 
z"/>
<path fill="#9A483E" opacity="1.000000" stroke="none" 
	d="
M138.067963,59.858055 
	C136.929855,58.952194 135.791733,58.046337 134.366989,56.999271 
	C136.772171,56.777321 139.464005,56.696579 142.505325,56.767784 
	C143.051483,57.746586 143.248123,58.573441 143.405090,59.690128 
	C142.780640,60.872673 142.195862,61.765385 141.142944,62.690090 
	C140.674789,62.722088 140.237228,62.500698 140.237228,62.500698 
	C140.237228,62.500698 140.206375,62.196018 140.039993,61.798927 
	C139.271729,60.887245 138.669846,60.372646 138.067963,59.858055 
z"/>
<path fill="#EBB9A0" opacity="1.000000" stroke="none" 
	d="
M160.617004,81.197746 
	C161.585678,81.584229 162.168915,82.075279 162.903717,82.813377 
	C163.751419,83.987350 164.447586,84.914268 165.418671,86.022133 
	C164.817032,88.299408 164.412903,91.599182 162.940353,92.177261 
	C161.228653,92.849190 157.878464,91.791565 156.495422,90.311172 
	C154.135986,87.785675 152.756210,84.344940 150.987122,80.878693 
	C154.083435,80.746574 157.157486,81.024437 160.617004,81.197746 
z"/>
<path fill="#F6BC9E" opacity="1.000000" stroke="none" 
	d="
M158.705338,77.888115 
	C159.241409,77.939636 159.861557,78.296181 160.740891,78.826363 
	C161.000061,79.000000 161.010437,79.008118 161.010437,79.008118 
	C161.004944,79.184845 160.999451,79.361572 160.976822,79.802780 
	C160.236252,79.442558 159.512848,78.817848 158.705338,77.888115 
z"/>
<path fill="#E8E8E9" opacity="1.000000" stroke="none" 
	d="
M140.058273,68.689499 
	C139.865143,68.607361 139.849777,68.547188 139.864838,68.520126 
	C140.003738,68.585922 140.127563,68.678780 140.058273,68.689499 
z"/>
<path fill="#E8E8E9" opacity="1.000000" stroke="none" 
	d="
M140.160919,62.887833 
	C140.237228,62.500698 140.674789,62.722088 140.876984,62.860855 
	C140.903122,63.303822 140.727051,63.608025 140.289581,63.987175 
	C140.046997,63.799736 140.065796,63.537354 140.160919,62.887833 
z"/>
<path fill="#AC4F42" opacity="1.000000" stroke="none" 
	d="
M244.093628,87.362595 
	C246.297745,86.564064 248.236069,85.994347 250.374649,85.365776 
	C251.625046,89.755608 250.335495,92.573952 247.139175,94.303070 
	C246.203079,94.809471 243.447540,94.095398 243.427872,93.809708 
	C243.286377,91.755867 243.634842,89.668282 244.093628,87.362595 
z"/>
<path fill="#974B41" opacity="1.000000" stroke="none" 
	d="
M207.011627,60.461296 
	C207.410522,61.046066 207.508438,61.627068 207.606354,62.208069 
	C207.195969,62.202812 206.785568,62.197559 206.375153,62.192307 
	C206.486984,61.614044 206.598816,61.035786 207.011627,60.461296 
z"/>
<path fill="#313439" opacity="1.000000" stroke="none" 
	d="
M207.754852,67.251694 
	C207.985733,67.332481 207.614044,67.576118 207.614044,67.576118 
	C207.614044,67.576118 207.205460,67.472473 207.121521,67.348076 
	C207.037598,67.223679 207.523956,67.170914 207.754852,67.251694 
z"/>
<path fill="#F6BC9E" opacity="1.000000" stroke="none" 
	d="
M160.996063,78.994904 
	C161.090897,78.959076 161.189758,78.928345 161.149521,78.952866 
	C161.010437,79.008118 161.000061,79.000000 160.996063,78.994904 
z"/>
<path fill="#E8E8E9" opacity="1.000000" stroke="none" 
	d="
M136.499359,65.063034 
	C136.148026,65.710327 135.871964,66.083260 135.595917,66.456192 
	C135.655685,65.489326 135.715454,64.522453 135.775208,63.555580 
	C136.041687,63.966610 136.308151,64.377640 136.499359,65.063034 
z"/>
<path fill="#E8E8E9" opacity="1.000000" stroke="none" 
	d="
M138.077271,60.190731 
	C138.669846,60.372646 139.271729,60.887245 139.926086,61.696590 
	C139.347916,61.502029 138.717255,61.012722 138.077271,60.190731 
z"/>
</svg>